<?xml version="1.0" encoding="utf-8"?>
<!-- Generator: Adobe Illustrator 22.0.1, SVG Export Plug-In . SVG Version: 6.00 Build 0)  -->
<svg version="1.1" id="Layer_1" xmlns="http://www.w3.org/2000/svg" xmlns:xlink="http://www.w3.org/1999/xlink" x="0px" y="0px"
	 viewBox="0 0 134.5 125.5" style="enable-background:new 0 0 134.5 125.5;" xml:space="preserve">
<style type="text/css">
	.st0{fill:#4B83C4;stroke:#000000;stroke-miterlimit:10;}
	.st1{fill:#FFFFFF;stroke:#000000;stroke-miterlimit:10;}
	.st2{fill:#CA932B;stroke:#000000;stroke-miterlimit:10;}
</style>
<ellipse transform="matrix(0.9789 -0.2044 0.2044 0.9789 -11.4034 15.0745)" class="st0" cx="67.3" cy="62.7" rx="67" ry="62"/>
<g>
	<path d="M52.9,65.5L52,77.6l-1.6-0.1l0.8-12.1L52.9,65.5z"/>
</g>
<g>
	<path d="M70.6,70.9c-0.3,3.8-3,5.3-5.5,5.1c-2.8-0.2-4.8-2.4-4.6-5.7c0.2-3.5,2.6-5.3,5.5-5.1C69,65.4,70.8,67.7,70.6,70.9z
		 M62.4,70.5c-0.2,2.3,1,4.1,2.9,4.2c1.8,0.1,3.3-1.5,3.4-3.8c0.1-1.8-0.6-4-2.8-4.2C63.6,66.5,62.5,68.5,62.4,70.5z"/>
</g>
<g>
	<path d="M9.4,56.7l1.6-0.3l2.2,10.9l5.2-1.1l0.3,1.3l-6.8,1.4L9.4,56.7z"/>
	<path d="M25.6,60.2l-4.8,1l0.9,4.4l5.3-1.1l0.3,1.3l-6.9,1.4L18,55l6.6-1.3l0.3,1.3l-5,1l0.8,3.9l4.8-1L25.6,60.2z"/>
	<path d="M29.8,54l-3.7,0.8l-0.3-1.3l9.1-1.8l0.3,1.3l-3.7,0.8l2.2,10.9L32,64.9L29.8,54z"/>
	<path d="M38,61.7c0.8,0.3,1.9,0.4,3,0.2c1.6-0.3,2.4-1.4,2.1-2.6c-0.2-1.1-1-1.7-2.8-2c-2.1-0.3-3.6-1.1-3.9-2.8
		c-0.4-1.9,0.9-3.6,3.3-4.1c1.3-0.3,2.2-0.1,2.8,0.1l-0.2,1.4c-0.4-0.1-1.3-0.3-2.4-0.1c-1.7,0.3-2.1,1.5-1.9,2.3
		c0.2,1.1,1.1,1.6,2.9,1.9c2.2,0.4,3.5,1.2,3.8,3c0.4,1.9-0.7,3.8-3.6,4.4c-1.2,0.2-2.5,0.2-3.3-0.1L38,61.7z"/>
	<path d="M50.7,49.8L47,50.5l-0.3-1.3l9.1-1.8l0.3,1.3l-3.7,0.8l2.2,10.9l-1.6,0.3L50.7,49.8z"/>
	<path d="M57.2,47.2c0.8-0.3,1.9-0.6,3-0.9c1.7-0.3,2.8-0.3,3.7,0.3c0.7,0.4,1.2,1.2,1.4,2.1c0.3,1.6-0.5,2.9-1.7,3.6l0,0.1
		c1,0.1,1.7,0.9,2.3,2.1c0.7,1.6,1.3,2.7,1.6,3.2L66,58c-0.3-0.3-0.8-1.3-1.4-2.8c-0.7-1.6-1.5-2.1-2.9-1.9l-1.5,0.3l1.1,5.3
		l-1.6,0.3L57.2,47.2z M59.9,52.5l1.6-0.3c1.7-0.3,2.6-1.5,2.3-2.9c-0.3-1.6-1.6-2-3.3-1.7c-0.8,0.2-1.3,0.3-1.5,0.5L59.9,52.5z"/>
	<path d="M70.7,53.1l-0.5,4.1l-1.6,0.3l1.7-13.1l1.9-0.4l6.6,11.4l-1.7,0.3L75,52.2L70.7,53.1z M74.4,51l-1.9-3.3
		c-0.4-0.7-0.8-1.4-1.1-2.1l0,0c0,0.8-0.1,1.5-0.2,2.3l-0.5,3.8L74.4,51z"/>
	<path d="M82.3,54.7l-6.5-11.4l1.7-0.3l3.1,5.6c0.9,1.5,1.6,2.9,2.2,4.3l0,0c0.1-1.5,0.3-3.1,0.5-4.8l0.8-6.5l1.7-0.3l-1.9,13.1
		L82.3,54.7z"/>
	<path d="M94.9,46.2l-4.8,1l0.9,4.4l5.3-1.1l0.3,1.3l-6.9,1.4L87.3,41l6.6-1.3l0.3,1.3l-5,1l0.8,3.9l4.8-1L94.9,46.2z"/>
	<path d="M96.2,39.2l1.6-0.3l2.2,10.9l5.2-1.1l0.3,1.3l-6.8,1.4L96.2,39.2z"/>
</g>
<line class="st1" x1="15.4" y1="72.9" x2="106.8" y2="54.4"/>
<polygon class="st2" points="130.6,49.6 109.6,68.1 104.1,40.7 "/>
<g>
	<path d="M17.4,85.1l-3.6,0.8l-0.3-1.3l8.8-1.9l0.3,1.3L19,84.8l2.2,10.6l-1.5,0.3L17.4,85.1z"/>
	<path d="M23.3,81.9l1.5-0.3l1.1,5.3l0,0c0.2-0.5,0.5-1,0.9-1.3c0.4-0.4,0.9-0.7,1.5-0.8c1.1-0.2,3.1,0.1,3.8,3l1.1,5.1l-1.5,0.3
		l-1-4.9c-0.3-1.4-1-2.4-2.5-2.1c-1,0.2-1.6,1.1-1.7,2c0,0.2,0,0.5,0.1,0.8l1.1,5.1L26,94.4L23.3,81.9z"/>
	<path d="M35.8,88.1c0.5,2.1,2,2.7,3.6,2.3c1.1-0.2,1.7-0.6,2.3-0.9l0.5,1.1c-0.5,0.4-1.4,0.8-2.7,1.1c-2.6,0.6-4.6-0.8-5.1-3.4
		c-0.5-2.6,0.5-4.9,3-5.4c2.8-0.6,4,1.7,4.4,3.3c0.1,0.3,0.1,0.6,0.1,0.7L35.8,88.1z M40.1,86c-0.2-1-0.9-2.4-2.7-2.1
		c-1.6,0.3-1.9,1.9-1.8,3L40.1,86z"/>
	<path d="M57.2,82.3c-0.4-1.6-1-3.6-1.3-5.1l-0.1,0c-0.1,1.5-0.3,3.1-0.5,4.8l-0.9,6.2l-1.2,0.2l-3.1-5.2c-0.9-1.6-1.7-3-2.4-4.3
		l0,0c0.3,1.5,0.6,3.5,0.9,5.3l0.8,5.2L48,89.7l-1.7-12l2-0.4l3.2,5.3c0.8,1.4,1.5,2.6,2,3.7l0.1,0c0-1.3,0.2-2.7,0.4-4.3l0.9-6.2
		l2-0.4l3.3,11.7l-1.5,0.3L57.2,82.3z"/>
	<path d="M69.1,82.7c0.2,0.9,0.4,1.7,0.6,2.3l-1.4,0.3L68,84l0,0c-0.3,0.8-1,1.9-2.5,2.2c-1.3,0.3-3.1-0.1-3.7-3.1l-1.1-5l1.5-0.3
		l1,4.7c0.3,1.6,1.1,2.6,2.5,2.3c1-0.2,1.6-1.1,1.7-1.8c0-0.2,0-0.5,0-0.8l-1.1-5.2l1.5-0.3L69.1,82.7z"/>
	<path d="M71.7,83c0.5,0.2,1.4,0.3,2.2,0.2c1.1-0.2,1.5-0.9,1.4-1.6c-0.2-0.7-0.7-1.1-1.9-1.2c-1.6-0.2-2.6-0.9-2.8-1.9
		c-0.3-1.4,0.6-2.7,2.4-3.1c0.9-0.2,1.7-0.1,2.2,0.1L75,76.5c-0.4-0.1-1.1-0.3-1.8-0.1c-0.9,0.2-1.3,0.8-1.2,1.5
		c0.2,0.7,0.7,0.9,1.9,1.1c1.6,0.2,2.5,0.8,2.8,2.1c0.3,1.5-0.6,2.8-2.6,3.2c-0.9,0.2-1.8,0.2-2.5-0.1L71.7,83z"/>
	<path d="M79.2,78.9c0.5,2.1,2,2.7,3.6,2.3c1.1-0.2,1.7-0.6,2.3-0.9l0.5,1.1c-0.5,0.4-1.4,0.8-2.7,1.1c-2.6,0.6-4.6-0.8-5.1-3.4
		c-0.5-2.6,0.5-4.9,3-5.4c2.8-0.6,4,1.7,4.4,3.3c0.1,0.3,0.1,0.6,0.1,0.7L79.2,78.9z M83.5,76.8c-0.2-1-0.9-2.4-2.7-2.1
		c-1.6,0.3-1.9,1.9-1.8,3L83.5,76.8z"/>
	<path d="M94.6,77.3c0.2,0.9,0.4,1.7,0.6,2.3l-1.4,0.3l-0.4-1.4l0,0c-0.3,0.8-1,1.9-2.5,2.2c-1.3,0.3-3.1-0.1-3.7-3.1l-1.1-5
		l1.5-0.3l1,4.7c0.3,1.6,1.1,2.6,2.5,2.3c1-0.2,1.6-1.1,1.7-1.8c0-0.2,0-0.5,0-0.8l-1.1-5.2l1.5-0.3L94.6,77.3z"/>
	<path d="M96.4,72.9c-0.2-0.9-0.4-1.6-0.6-2.3l1.4-0.3l0.4,1.4l0.1,0c0.3-0.9,0.9-1.8,2.3-2.1c1.2-0.2,2.2,0.3,2.8,1.2l0,0
		c0.2-0.5,0.4-1,0.7-1.3c0.4-0.5,0.9-0.8,1.8-1c1.1-0.2,3,0.1,3.6,3.1l1.1,5l-1.5,0.3l-1-4.8c-0.3-1.6-1.2-2.5-2.4-2.2
		c-0.9,0.2-1.4,1-1.5,1.8c0,0.2,0,0.5,0,0.8l1.1,5.3L103,78l-1.1-5.1c-0.3-1.4-1.1-2.2-2.3-2c-1,0.2-1.5,1.1-1.6,2
		c0,0.2,0,0.5,0,0.8l1.1,5.1l-1.5,0.3L96.4,72.9z"/>
</g>
</svg>
